<svg xmlns="http://www.w3.org/2000/svg" height="70pt" version="1.1" viewBox="0 -11 70.977291 70" width="70pt">
<g id="surface1">
<path d="M 0.753906 25.6875 L 10.515625 29.71875 L 8.445312 30.683594 C 7.863281 30.980469 7.605469 31.671875 7.863281 32.273438 L 10.675781 38.316406 C 10.8125 38.613281 11.066406 38.847656 11.371094 38.957031 C 11.671875 39.085938 12.015625 39.085938 12.316406 38.957031 L 33.714844 28.921875 L 33.984375 26.074219 L 34.359375 22.265625 C 34.402344 21.757812 34.851562 21.386719 35.355469 21.433594 C 35.683594 21.460938 35.96875 21.664062 36.105469 21.96875 C 36.183594 22.109375 36.21875 22.273438 36.207031 22.4375 L 33.726562 48.71875 C 34.28125 49.125 34.976562 49.273438 35.648438 49.144531 C 36.59375 48.894531 37.433594 47.789062 38.128906 45.96875 L 48.054688 16.429688 L 48.339844 15.589844 C 48.484375 15.097656 49 14.816406 49.496094 14.960938 C 49.988281 15.109375 50.269531 15.625 50.125 16.117188 C 50.113281 16.140625 50.109375 16.164062 50.101562 16.183594 L 49.132812 19.015625 L 48.042969 22.265625 L 64.800781 14.414062 C 69.640625 12.152344 72.128906 7.574219 70.457031 4.003906 C 69.507812 2.136719 67.691406 0.867188 65.609375 0.617188 C 63.296875 0.269531 60.933594 0.632812 58.832031 1.660156 L 39.855469 10.515625 L 19.484375 2.5625 C 16.917969 1.597656 14.882812 1.621094 13.457031 2.652344 C 12.261719 3.632812 11.582031 5.109375 11.609375 6.660156 C 11.621094 7.046875 11.820312 7.414062 12.140625 7.636719 L 25.863281 17.039062 L 17.996094 20.761719 L 4.808594 17.460938 C 4.269531 17.332031 3.707031 17.574219 3.433594 18.054688 L 0.160156 23.9375 C -0.175781 24.535156 0.0351562 25.289062 0.632812 25.625 C 0.671875 25.648438 0.714844 25.667969 0.753906 25.6875 Z M 0.753906 25.6875 " style=" stroke:none;fill-rule:nonzero;fill:rgb(0%,0%,0%);fill-opacity:1;" />
</g>
</svg>