<svg xmlns="http://www.w3.org/2000/svg" viewBox="0 0 29.32 20.86" fill="#bac1cb">
    <g id="prefix__Layer_2" data-name="Layer 2">
        <g id="prefix__Layer_1-2" data-name="Layer 1">
            <circle class="prefix__cls-1" cx="14.6" cy="9.89" r="3.66" />
            <path class="prefix__cls-1"
                d="M20.9 17.66c0-1.5-2.82-2.72-6.3-2.72s-6.3 1.22-6.3 2.72a.68.68 0 000 .14v2.08a1 1 0 001 1h10.58a1 1 0 001-1v-2a.31.31 0 000-.08.68.68 0 00.02-.14z" />
            <circle class="prefix__cls-1" cx="23.77" cy="10.86" r="2.95" />
            <path class="prefix__cls-1"
                d="M29.32 17.89c0-1.34-2.51-2.42-5.61-2.42a11.56 11.56 0 00-3.28.45c.91.48 1.45 1.08 1.45 1.74v2.22a1 1 0 01-.56.9h7.1a.91.91 0 00.9-.91v-1.78-.08-.12z" />
            <circle class="prefix__cls-1" cx="5.55" cy="10.86" r="2.95" />
            <path class="prefix__cls-1"
                d="M0 17.89c0-1.34 2.51-2.42 5.61-2.42a11.45 11.45 0 013.28.45C8 16.4 7.44 17 7.44 17.66a.68.68 0 000 .14.31.31 0 000 .08v2a1 1 0 00.56.9H.9a.91.91 0 01-.9-.91v-1.78V18v-.11z" />
            <rect class="prefix__cls-1" x="8.5" y="1.09" width=".99" height="3.38" rx=".44" ry=".44"
                transform="rotate(-38.3 8.989 2.783)" />
            <rect class="prefix__cls-1" x="19.48" y=".99" width=".98" height="3.25" rx=".49" ry=".49"
                transform="rotate(-135 19.965 2.62)" />
            <rect class="prefix__cls-1" x="14.11" width=".99" height="3.22" rx=".5" ry=".5" />
        </g>
    </g>
</svg>