<svg width="16" height="35" viewBox="0 0 16 35" fill="none" xmlns="http://www.w3.org/2000/svg">
<path d="M7 1C7 0.447715 7.44772 0 8 0C8.55228 0 9 0.447715 9 1L7 1ZM8.70711 34.7071C8.31658 35.0976 7.68342 35.0976 7.29289 34.7071L0.928932 28.3431C0.538408 27.9526 0.538408 27.3195 0.928932 26.9289C1.31946 26.5384 1.95262 26.5384 2.34315 26.9289L8 32.5858L13.6569 26.9289C14.0474 26.5384 14.6805 26.5384 15.0711 26.9289C15.4616 27.3195 15.4616 27.9526 15.0711 28.3431L8.70711 34.7071ZM9 1L9 34H7L7 1L9 1Z" fill="#46DF5E"/>
</svg>
