<svg xmlns="http://www.w3.org/2000/svg" xmlns:xlink="http://www.w3.org/1999/xlink" viewBox="0 0 81.4 130.5"><defs><style>.a{fill:none;}.b{isolation:isolate;}.c{clip-path:url(#a);}.d{fill:#956920;}.e{fill:#996c22;}.f{clip-path:url(#b);}.g{fill:#91661e;}.h{fill:#966a20;}.i{clip-path:url(#c);}.j{fill:#f0a83d;}.k{clip-path:url(#d);}</style><clipPath id="a"><path class="a" d="M37.4,2.4,45.5.1a3.5,3.5,0,0,0-2.1,1.7L35.4,4A3.2,3.2,0,0,1,37.4,2.4Z"/></clipPath><clipPath id="b"><path class="a" d="M37.7,86.5l-8.1,2.2a4.1,4.1,0,0,0-2.2-5l8.1-2.3A4.4,4.4,0,0,1,37.7,86.5Z"/></clipPath><clipPath id="c"><path class="a" d="M30.7,128.2l-8,2.2h-.8a4.1,4.1,0,0,1-3.7-5.4l8.1-2.2a4.1,4.1,0,0,0,3.6,5.4Z"/></clipPath><clipPath id="d"><path class="a" d="M10.5,70.4,2.4,72.7A4.3,4.3,0,0,1,.5,66.9l8-2.2A4.1,4.1,0,0,0,10.5,70.4Z"/></clipPath></defs><title>Asset 2</title><g class="b"><g class="b"><g class="c"><g class="b"><path class="d" d="M43.4,1.8,35.4,4a3.2,3.2,0,0,1,1.4-1.4L44.9.4a3.3,3.3,0,0,0-1.5,1.4"/><path class="e" d="M44.9.4,36.8,2.6l.6-.2L45.5.1l-.6.3"/></g></g></g><g class="b"><g class="f"><g class="b"><path class="d" d="M37.7,86.5l-8.1,2.2a4.1,4.1,0,0,0-2.2-5l8.1-2.3a4.4,4.4,0,0,1,2.2,5.1"/></g></g></g><polygon class="d" points="26.3 122.9 18.2 125.1 29.6 88.7 37.7 86.5 26.3 122.9"/><polygon class="g" points="35.5 81.4 27.4 83.7 2.4 72.7 10.5 70.4 35.5 81.4"/><polygon class="h" points="8.5 64.7 0.5 66.9 35.4 4 43.4 1.8 8.5 64.7"/><g class="b"><g class="i"><g class="b"><path class="d" d="M30.7,128.2l-8,2.2h-.8a4.1,4.1,0,0,1-3.7-5.4l8.1-2.2a4.1,4.1,0,0,0,3.6,5.4h.8"/></g></g></g><path class="j" d="M46.3,0l1.6.3L79.1,15.4a4.2,4.2,0,0,1,1.6,6.1L51.9,61.2a4.1,4.1,0,0,0,1.7,6.1L75.9,77.4A4.1,4.1,0,0,1,77.1,84L32.2,127.3a3.2,3.2,0,0,1-2.3,1,4.1,4.1,0,0,1-3.6-5.4L37.7,86.5a4.4,4.4,0,0,0-2.2-5.1l-25-11a4.1,4.1,0,0,1-2-5.7L43.4,1.8A3.3,3.3,0,0,1,46.3,0Z"/><g class="b"><g class="k"><g class="b"><path class="d" d="M10.5,70.4,2.4,72.7A4.3,4.3,0,0,1,.5,66.9l8-2.2a4.1,4.1,0,0,0,2,5.7"/></g></g></g></g></svg>