<svg xmlns="http://www.w3.org/2000/svg" viewBox="0 0 29.32 20.86"><defs><style>.cls-1{fill:#bac1cb;}</style></defs><title>icon-community</title><g id="Layer_2" data-name="Layer 2"><g id="Layer_1-2" data-name="Layer 1"><ellipse class="cls-1" cx="14.6" cy="9.89" rx="3.66" ry="3.66"/><path class="cls-1" d="M20.9,17.66c0-1.5-2.82-2.72-6.3-2.72s-6.3,1.22-6.3,2.72a.68.68,0,0,0,0,.14s0,.06,0,.08v2a1,1,0,0,0,1,1H19.88a1,1,0,0,0,1-1v-2a.31.31,0,0,0,0-.08A.68.68,0,0,0,20.9,17.66Z"/><circle class="cls-1" cx="23.77" cy="10.86" r="2.95"/><path class="cls-1" d="M29.32,17.89c0-1.34-2.51-2.42-5.61-2.42a11.56,11.56,0,0,0-3.28.45c.91.48,1.45,1.08,1.45,1.74,0,.05,0,.09,0,.14s0,.06,0,.08v2a1,1,0,0,1-.56.9h7.1a.91.91,0,0,0,.9-.91V18.09s0-.05,0-.08S29.32,17.93,29.32,17.89Z"/><circle class="cls-1" cx="5.55" cy="10.86" r="2.95"/><path class="cls-1" d="M0,17.89c0-1.34,2.51-2.42,5.61-2.42a11.45,11.45,0,0,1,3.28.45C8,16.4,7.44,17,7.44,17.66a.68.68,0,0,0,0,.14.31.31,0,0,0,0,.08v2a1,1,0,0,0,.56.9H.9a.91.91,0,0,1-.9-.91V18.09S0,18,0,18,0,17.93,0,17.89Z"/><rect class="cls-1" x="8.5" y="1.09" width="0.99" height="3.38" rx="0.44" ry="0.44" transform="translate(0.21 6.17) rotate(-38.3)"/><rect class="cls-1" x="19.48" y="0.99" width="0.98" height="3.25" rx="0.49" ry="0.49" transform="translate(32.23 18.59) rotate(-135)"/><rect class="cls-1" x="14.11" width="0.99" height="3.22" rx="0.5" ry="0.5"/></g></g></svg>