<svg xmlns="http://www.w3.org/2000/svg" viewBox="0 0 83.23 100.56"><defs><style>.cls-1{fill:#8eccb8;}.cls-1,.cls-4{stroke:#454b54;stroke-miterlimit:10;stroke-width:3px;}.cls-2{fill:#72a999;}.cls-3{fill:#454b54;}.cls-4{fill:none;}</style></defs><title>icon-tree</title><g id="Layer_2" data-name="Layer 2"><g id="Layer_1-2" data-name="Layer 1"><path class="cls-1" d="M81.73,55.84A24,24,0,0,0,62.14,32.21,21.47,21.47,0,1,0,21.3,23a21.66,21.66,0,0,0,1.14,6.87,25.21,25.21,0,0,0,4.27,50.05H58.84v0A24.06,24.06,0,0,0,81.73,55.84Z"/><path class="cls-2" d="M81.73,55.84A24,24,0,0,0,62.14,32.21a21.45,21.45,0,0,0-32.7-26A21.42,21.42,0,0,1,56.29,26.93a21.35,21.35,0,0,1-2.11,9.24A24,24,0,0,1,64.21,79,24,24,0,0,0,81.73,55.84Z"/><rect class="cls-3" x="38.93" y="40.7" width="4.21" height="59.87" rx="1.95" ry="1.95"/><rect class="cls-3" x="33.79" y="48.35" width="3.16" height="20.12" rx="1.48" ry="1.48" transform="translate(-27.33 31.36) rotate(-35.47)"/><rect class="cls-3" x="45.58" y="59.3" width="3.16" height="16.46" rx="1.35" ry="1.35" transform="translate(16.63 144.03) rotate(-123.31)"/><path class="cls-4" d="M81.73,55.84A24,24,0,0,0,62.14,32.21,21.47,21.47,0,1,0,21.3,23a21.66,21.66,0,0,0,1.14,6.87,25.21,25.21,0,0,0,4.27,50.05H58.84v0A24.06,24.06,0,0,0,81.73,55.84Z"/></g></g></svg>